<svg width="91" height="91" viewBox="0 0 91 91" fill="none" xmlns="http://www.w3.org/2000/svg">
<path d="M15.0732 28.2464V1H76.2296L76.0816 28.2464" stroke="white" stroke-width="1.5"/>
<path d="M15.0732 62.3048V89.5513H76.2296L76.0816 62.3048" stroke="white" stroke-width="1.5"/>
<path d="M1.58169 46.156C1.24569 46.156 1.07769 45.964 1.07769 45.58V38.296H7.14969V45.58C7.14969 45.964 6.98169 46.156 6.64569 46.156C6.30969 46.156 6.14169 45.964 6.14169 45.58V39.304H2.08569V45.58C2.08569 45.964 1.91769 46.156 1.58169 46.156ZM14.0504 46.18C13.4184 46.18 12.8704 46.06 12.4064 45.82C11.9424 45.58 11.5844 45.24 11.3324 44.8C11.0804 44.36 10.9544 43.84 10.9544 43.24V41.128C10.9544 40.528 11.0804 40.008 11.3324 39.568C11.5844 39.128 11.9424 38.788 12.4064 38.548C12.8704 38.308 13.4184 38.188 14.0504 38.188C14.6784 38.188 15.2244 38.31 15.6884 38.554C16.1524 38.794 16.5104 39.134 16.7624 39.574C17.0184 40.014 17.1464 40.532 17.1464 41.128V43.24C17.1464 43.836 17.0184 44.354 16.7624 44.794C16.5104 45.234 16.1524 45.576 15.6884 45.82C15.2244 46.06 14.6784 46.18 14.0504 46.18ZM14.0504 45.172C14.7304 45.172 15.2484 45.004 15.6044 44.668C15.9604 44.328 16.1384 43.84 16.1384 43.204V41.164C16.1384 40.504 15.9584 40.012 15.5984 39.688C15.2384 39.36 14.7224 39.196 14.0504 39.196C13.3744 39.196 12.8564 39.364 12.4964 39.7C12.1404 40.036 11.9624 40.524 11.9624 41.164V43.204C11.9624 43.84 12.1404 44.328 12.4964 44.668C12.8564 45.004 13.3744 45.172 14.0504 45.172ZM25.9285 46.156C25.5925 46.156 25.4245 45.96 25.4245 45.568V39.304H23.1205C22.8485 39.304 22.6665 39.338 22.5745 39.406C22.4825 39.47 22.4365 39.6 22.4365 39.796V44.404C22.4365 44.796 22.3805 45.116 22.2685 45.364C22.1605 45.608 21.9865 45.788 21.7465 45.904C21.5105 46.016 21.2005 46.072 20.8165 46.072C20.4005 46.072 20.1925 45.904 20.1925 45.568C20.1925 45.232 20.4005 45.064 20.8165 45.064C21.0085 45.064 21.1345 45.034 21.1945 44.974C21.2545 44.91 21.2845 44.78 21.2845 44.584V39.964C21.2845 39.54 21.3385 39.208 21.4465 38.968C21.5545 38.724 21.7345 38.552 21.9865 38.452C22.2425 38.348 22.5925 38.296 23.0365 38.296H26.4325V45.568C26.4325 45.96 26.2645 46.156 25.9285 46.156ZM30.9833 46.156C30.6473 46.156 30.4793 45.972 30.4793 45.604V38.776C30.4793 38.4 30.6473 38.212 30.9833 38.212C31.3193 38.212 31.4873 38.4 31.4873 38.776V45.604C31.4873 45.972 31.3193 46.156 30.9833 46.156ZM36.0141 46.156C35.8661 46.156 35.7461 46.106 35.6541 46.006C35.5661 45.906 35.5221 45.772 35.5221 45.604V39.16C35.5221 38.996 35.5681 38.858 35.6601 38.746C35.7521 38.63 35.8821 38.572 36.0501 38.572C36.3701 38.572 36.5301 38.768 36.5301 39.16V41.944H37.4901C37.5981 41.944 37.7201 41.89 37.8561 41.782C37.9921 41.67 38.1521 41.49 38.3361 41.242C38.5201 40.99 38.7381 40.652 38.9901 40.228C39.0741 40.088 39.1761 39.924 39.2961 39.736C39.4161 39.544 39.5541 39.36 39.7101 39.184C39.8701 39.004 40.0501 38.856 40.2501 38.74C40.4541 38.62 40.6781 38.56 40.9221 38.56C41.3381 38.56 41.5461 38.74 41.5461 39.1C41.5461 39.292 41.4861 39.412 41.3661 39.46C41.2501 39.508 41.1021 39.544 40.9221 39.568C40.7501 39.592 40.5941 39.69 40.4541 39.862C40.3181 40.03 40.1421 40.288 39.9261 40.636C39.7421 40.936 39.5941 41.176 39.4821 41.356C39.3741 41.536 39.2781 41.686 39.1941 41.806C39.1101 41.926 39.0101 42.044 38.8941 42.16C38.7821 42.272 38.6261 42.412 38.4261 42.58L38.4021 42.268C38.6501 42.468 38.8681 42.678 39.0561 42.898C39.2481 43.114 39.4181 43.33 39.5661 43.546C39.7141 43.762 39.8501 43.968 39.9741 44.164C40.1861 44.488 40.3581 44.726 40.4901 44.878C40.6261 45.026 40.7741 45.116 40.9341 45.148C40.9941 45.16 41.0721 45.176 41.1681 45.196C41.2681 45.212 41.3561 45.254 41.4321 45.322C41.5081 45.39 41.5461 45.504 41.5461 45.664C41.5461 45.992 41.3501 46.156 40.9581 46.156C40.6661 46.156 40.3641 46.06 40.0521 45.868C39.7441 45.672 39.4461 45.38 39.1581 44.992C39.0941 44.9 38.9961 44.76 38.8641 44.572C38.7361 44.38 38.6181 44.204 38.5101 44.044C38.2661 43.676 38.0561 43.402 37.8801 43.222C37.7081 43.042 37.5381 42.952 37.3701 42.952H36.5301V45.604C36.5301 45.764 36.4821 45.896 36.3861 46C36.2941 46.104 36.1701 46.156 36.0141 46.156ZM50.0686 46.156C49.7326 46.156 49.5646 45.96 49.5646 45.568V39.304H47.2606C46.9886 39.304 46.8066 39.338 46.7146 39.406C46.6226 39.47 46.5766 39.6 46.5766 39.796V44.404C46.5766 44.796 46.5206 45.116 46.4086 45.364C46.3006 45.608 46.1266 45.788 45.8866 45.904C45.6506 46.016 45.3406 46.072 44.9566 46.072C44.5406 46.072 44.3326 45.904 44.3326 45.568C44.3326 45.232 44.5406 45.064 44.9566 45.064C45.1486 45.064 45.2746 45.034 45.3346 44.974C45.3946 44.91 45.4246 44.78 45.4246 44.584V39.964C45.4246 39.54 45.4786 39.208 45.5866 38.968C45.6946 38.724 45.8746 38.552 46.1266 38.452C46.3826 38.348 46.7326 38.296 47.1766 38.296H50.5726V45.568C50.5726 45.96 50.4046 46.156 50.0686 46.156ZM55.1234 46.156C54.7874 46.156 54.6194 45.972 54.6194 45.604V38.776C54.6194 38.4 54.7874 38.212 55.1234 38.212C55.4594 38.212 55.6274 38.4 55.6274 38.776V45.604C55.6274 45.972 55.4594 46.156 55.1234 46.156ZM60.1662 46.156C59.8302 46.156 59.6622 45.964 59.6622 45.58V38.8C59.6622 38.408 59.8222 38.212 60.1422 38.212C60.4942 38.212 60.6702 38.408 60.6702 38.8V41.38H64.8463V38.8C64.8463 38.408 65.0143 38.212 65.3503 38.212C65.6863 38.212 65.8543 38.408 65.8543 38.8V45.58C65.8543 45.964 65.6863 46.156 65.3503 46.156C65.0143 46.156 64.8463 45.964 64.8463 45.58V42.388H60.6702V45.58C60.6702 45.964 60.5022 46.156 60.1662 46.156ZM70.3887 46.156C70.0527 46.156 69.8847 45.972 69.8847 45.604V38.776C69.8847 38.4 70.0527 38.212 70.3887 38.212C70.7247 38.212 70.8927 38.4 70.8927 38.776V45.604C70.8927 45.972 70.7247 46.156 70.3887 46.156ZM75.4196 46.156C75.2716 46.156 75.1516 46.106 75.0596 46.006C74.9716 45.906 74.9276 45.772 74.9276 45.604V39.16C74.9276 38.996 74.9736 38.858 75.0656 38.746C75.1576 38.63 75.2876 38.572 75.4556 38.572C75.7756 38.572 75.9356 38.768 75.9356 39.16V41.944H76.8956C77.0036 41.944 77.1256 41.89 77.2616 41.782C77.3976 41.67 77.5576 41.49 77.7416 41.242C77.9256 40.99 78.1436 40.652 78.3956 40.228C78.4796 40.088 78.5816 39.924 78.7016 39.736C78.8216 39.544 78.9596 39.36 79.1156 39.184C79.2756 39.004 79.4556 38.856 79.6556 38.74C79.8596 38.62 80.0836 38.56 80.3276 38.56C80.7436 38.56 80.9516 38.74 80.9516 39.1C80.9516 39.292 80.8916 39.412 80.7716 39.46C80.6556 39.508 80.5076 39.544 80.3276 39.568C80.1556 39.592 79.9996 39.69 79.8596 39.862C79.7236 40.03 79.5476 40.288 79.3316 40.636C79.1476 40.936 78.9996 41.176 78.8876 41.356C78.7796 41.536 78.6836 41.686 78.5996 41.806C78.5156 41.926 78.4156 42.044 78.2996 42.16C78.1876 42.272 78.0316 42.412 77.8316 42.58L77.8076 42.268C78.0556 42.468 78.2736 42.678 78.4616 42.898C78.6536 43.114 78.8236 43.33 78.9716 43.546C79.1196 43.762 79.2556 43.968 79.3796 44.164C79.5916 44.488 79.7636 44.726 79.8956 44.878C80.0316 45.026 80.1796 45.116 80.3396 45.148C80.3996 45.16 80.4776 45.176 80.5736 45.196C80.6736 45.212 80.7616 45.254 80.8376 45.322C80.9136 45.39 80.9516 45.504 80.9516 45.664C80.9516 45.992 80.7556 46.156 80.3636 46.156C80.0716 46.156 79.7696 46.06 79.4576 45.868C79.1496 45.672 78.8516 45.38 78.5636 44.992C78.4996 44.9 78.4016 44.76 78.2696 44.572C78.1416 44.38 78.0236 44.204 77.9156 44.044C77.6716 43.676 77.4616 43.402 77.2856 43.222C77.1136 43.042 76.9436 42.952 76.7756 42.952H75.9356V45.604C75.9356 45.764 75.8876 45.896 75.7916 46C75.6996 46.104 75.5756 46.156 75.4196 46.156ZM84.2661 46.264C84.1301 46.264 84.0121 46.22 83.9121 46.132C83.8121 46.048 83.7621 45.948 83.7621 45.832C83.7621 45.712 83.7761 45.612 83.8041 45.532L86.6661 38.296H87.7461L90.6081 45.532C90.6361 45.612 90.6501 45.712 90.6501 45.832C90.6501 45.948 90.6001 46.048 90.5001 46.132C90.4001 46.22 90.2821 46.264 90.1461 46.264C89.8981 46.264 89.7281 46.136 89.6361 45.88L88.8261 43.804H85.5861L84.7761 45.886C84.6681 46.138 84.4981 46.264 84.2661 46.264ZM85.9941 42.796H88.4181L87.1941 39.808L85.9941 42.796Z" fill="white"/>
<path d="M29.765 57.2146C28.993 57.2146 28.381 57.1426 27.929 56.9986C27.477 56.8546 27.151 56.6166 26.951 56.2846C26.755 55.9526 26.657 55.5026 26.657 54.9346V51.7186C26.657 51.1586 26.751 50.7126 26.939 50.3806C27.127 50.0486 27.433 49.8086 27.857 49.6606C28.281 49.5126 28.845 49.4386 29.549 49.4386H31.457C31.773 49.4386 32.033 49.4946 32.237 49.6066C32.445 49.7146 32.599 49.8726 32.699 50.0806C32.799 50.2886 32.849 50.5386 32.849 50.8306C32.849 51.3346 32.681 51.5866 32.345 51.5866C32.165 51.5866 32.039 51.5306 31.967 51.4186C31.895 51.3026 31.853 51.1466 31.841 50.9506C31.829 50.7626 31.801 50.6326 31.757 50.5606C31.717 50.4846 31.589 50.4466 31.373 50.4466H29.549C29.021 50.4466 28.621 50.4786 28.349 50.5426C28.081 50.6066 27.899 50.7326 27.803 50.9206C27.711 51.1046 27.665 51.3786 27.665 51.7426V54.9106C27.665 55.2786 27.715 55.5566 27.815 55.7446C27.915 55.9286 28.115 56.0526 28.415 56.1166C28.715 56.1766 29.165 56.2066 29.765 56.2066H31.373C31.589 56.2066 31.717 56.1686 31.757 56.0926C31.801 56.0166 31.829 55.8866 31.841 55.7026C31.861 55.4746 31.909 55.3126 31.985 55.2166C32.065 55.1166 32.185 55.0666 32.345 55.0666C32.521 55.0706 32.649 55.1346 32.729 55.2586C32.809 55.3786 32.849 55.5706 32.849 55.8346C32.849 56.1266 32.799 56.3766 32.699 56.5846C32.599 56.7886 32.445 56.9446 32.237 57.0526C32.033 57.1606 31.773 57.2146 31.457 57.2146H29.765ZM36.9273 57.2986C36.5913 57.2986 36.4233 57.1146 36.4233 56.7466V49.9186C36.4233 49.5426 36.5913 49.3546 36.9273 49.3546C37.2633 49.3546 37.4313 49.5426 37.4313 49.9186V56.7466C37.4313 57.1146 37.2633 57.2986 36.9273 57.2986ZM41.8502 57.2986C41.5142 57.2986 41.3462 57.1066 41.3462 56.7226V49.9426C41.3462 49.5506 41.5062 49.3546 41.8262 49.3546C42.0222 49.3546 42.1942 49.4566 42.3422 49.6606L44.5622 52.7686L46.7942 49.6606C46.9382 49.4566 47.1062 49.3546 47.2982 49.3546C47.6262 49.3546 47.7902 49.5506 47.7902 49.9426V56.7226C47.7902 57.1066 47.6222 57.2986 47.2862 57.2986C46.9502 57.2986 46.7822 57.0946 46.7822 56.6866V51.0946L45.0002 53.6266C44.9322 53.7266 44.8662 53.7926 44.8022 53.8246C44.7382 53.8526 44.6622 53.8666 44.5742 53.8666C44.4822 53.8666 44.4022 53.8526 44.3342 53.8246C44.2702 53.7926 44.2042 53.7266 44.1362 53.6266L42.3542 51.0946V56.6866C42.3542 57.0946 42.1862 57.2986 41.8502 57.2986ZM51.7365 51.4546C51.6125 51.4546 51.4945 51.4086 51.3825 51.3166C51.2745 51.2206 51.2565 51.0826 51.3285 50.9026L51.9525 49.2586L52.7445 49.5826L52.1205 51.2146C52.0965 51.2866 52.0465 51.3446 51.9705 51.3886C51.8985 51.4326 51.8205 51.4546 51.7365 51.4546ZM52.0245 49.8706C51.7045 49.8706 51.5445 49.7106 51.5445 49.3906V49.0906C51.5445 48.7786 51.7045 48.6226 52.0245 48.6226H52.3125C52.6165 48.6226 52.7685 48.7786 52.7685 49.0906V49.3906C52.7685 49.7106 52.6165 49.8706 52.3125 49.8706H52.0245ZM56.4942 57.2986C56.0862 57.2986 55.8822 57.1306 55.8822 56.7946C55.8822 56.5826 55.9462 56.4526 56.0742 56.4046C56.2062 56.3526 56.3502 56.3186 56.5062 56.3026C56.6982 56.2826 56.8482 56.1986 56.9562 56.0506C57.0682 55.9026 57.1382 55.7786 57.1662 55.6786L57.5022 54.4426C57.5382 54.3106 57.6002 54.1586 57.6882 53.9866C57.7802 53.8106 57.8982 53.6546 58.0422 53.5186C57.6222 53.3306 57.3142 53.0766 57.1182 52.7566C56.9262 52.4326 56.8302 52.0586 56.8302 51.6346C56.8302 50.9186 57.0802 50.3746 57.5802 50.0026C58.0842 49.6266 58.8062 49.4386 59.7462 49.4386H61.9542C62.2742 49.4386 62.4342 49.6426 62.4342 50.0506V56.7466C62.4342 57.1146 62.2662 57.2986 61.9302 57.2986C61.5862 57.2986 61.4142 57.1146 61.4142 56.7466V53.8066H59.7222C59.3742 53.8066 59.1042 53.8666 58.9122 53.9866C58.7242 54.1026 58.5902 54.3106 58.5102 54.6106L58.2102 55.7386C58.0822 56.2226 57.8562 56.6046 57.5322 56.8846C57.2122 57.1606 56.8662 57.2986 56.4942 57.2986ZM59.7462 52.7986H61.4142V50.4466H59.7462C59.1062 50.4466 58.6322 50.5426 58.3242 50.7346C58.0162 50.9226 57.8622 51.2186 57.8622 51.6226C57.8622 52.0186 58.0142 52.3146 58.3182 52.5106C58.6222 52.7026 59.0982 52.7986 59.7462 52.7986Z" fill="white"/>
<path d="M45.9381 15.9468L46.0499 15.7232L45.9971 15.6968H45.9381V15.9468ZM46.9379 19.089L47.183 19.1381L47.1879 19.1138V19.089H46.9379ZM46.5809 18.9604C46.5099 18.842 46.3563 18.8036 46.2379 18.8747C46.1195 18.9457 46.0811 19.0993 46.1522 19.2177L46.5809 18.9604ZM44.5098 16.1968H45.9381V15.6968H44.5098V16.1968ZM45.8263 16.1704C46.0087 16.2616 46.2333 16.3915 46.4095 16.5573C46.5864 16.7238 46.6879 16.9006 46.6879 17.0894H47.1879C47.1879 16.7069 46.9799 16.4076 46.7521 16.1932C46.5236 15.9781 46.2484 15.8224 46.0499 15.7232L45.8263 16.1704ZM46.6879 17.0894V19.089H47.1879V17.0894H46.6879ZM46.6927 19.04C46.6841 19.0832 46.6703 19.1249 46.6549 19.1545C46.6475 19.1688 46.6421 19.1756 46.6405 19.1773C46.639 19.179 46.6454 19.1712 46.6616 19.164C46.6802 19.1557 46.7022 19.1526 46.7221 19.1556C46.7399 19.1582 46.7447 19.1639 46.7355 19.1576C46.7259 19.151 46.7068 19.1352 46.6791 19.1021C46.6517 19.0694 46.6188 19.0235 46.5809 18.9604L46.1522 19.2177C46.2452 19.3727 46.3429 19.4944 46.452 19.5694C46.5715 19.6517 46.7196 19.6852 46.8642 19.6211C46.9871 19.5666 47.0589 19.4614 47.0985 19.3851C47.1412 19.3031 47.1679 19.2139 47.183 19.1381L46.6927 19.04Z" fill="white"/>
<path d="M45.939 22.1503L46.168 22.2506C46.1819 22.2189 46.189 22.1848 46.189 22.1503H45.939ZM44.832 19.7334V22.1503H45.332V19.7334H44.832ZM44.832 22.1503C44.832 22.2991 44.9173 22.4268 44.994 22.5081C45.0784 22.5974 45.1954 22.6774 45.3316 22.7183C45.4712 22.7602 45.6377 22.7619 45.7987 22.6794C45.9577 22.5979 46.0807 22.4499 46.168 22.2506L45.71 22.05C45.6545 22.1768 45.599 22.2199 45.5705 22.2345C45.5441 22.248 45.5141 22.251 45.4752 22.2394C45.4328 22.2266 45.3892 22.1983 45.3575 22.1648C45.3182 22.1232 45.332 22.1134 45.332 22.1503H44.832ZM46.189 22.1503V19.7335H45.689V22.1503H46.189Z" fill="white"/>
<path d="M45.0806 22.1503L45.3096 22.2506C45.3235 22.2189 45.3306 22.1848 45.3306 22.1503H45.0806ZM43.9736 19.7334V22.1503H44.4736V19.7334H43.9736ZM43.9736 22.1503C43.9736 22.2991 44.0589 22.4268 44.1356 22.5081C44.22 22.5974 44.337 22.6774 44.4732 22.7183C44.6128 22.7602 44.7793 22.7619 44.9403 22.6794C45.0993 22.5979 45.2223 22.4499 45.3096 22.2506L44.8516 22.05C44.7961 22.1768 44.7406 22.2199 44.7121 22.2345C44.6857 22.248 44.6557 22.251 44.6168 22.2394C44.5744 22.2266 44.5308 22.1983 44.4991 22.1648C44.4598 22.1232 44.4736 22.1134 44.4736 22.1503H43.9736ZM45.3306 22.1503V19.7335H44.8306V22.1503H45.3306Z" fill="white"/>
<path d="M44.3676 15.9468L44.2558 15.7232L44.3086 15.6968H44.3676V15.9468ZM43.3678 19.089L43.1226 19.1381L43.1178 19.1138V19.089H43.3678ZM43.7247 18.9604C43.7958 18.842 43.9493 18.8036 44.0677 18.8747C44.1861 18.9457 44.2245 19.0993 44.1535 19.2177L43.7247 18.9604ZM45.7959 16.1968H44.3676V15.6968H45.7959V16.1968ZM44.4794 16.1704C44.297 16.2616 44.0723 16.3915 43.8962 16.5573C43.7193 16.7238 43.6178 16.9006 43.6178 17.0894H43.1178C43.1178 16.7069 43.3258 16.4076 43.5535 16.1932C43.7821 15.9781 44.0573 15.8224 44.2558 15.7232L44.4794 16.1704ZM43.6178 17.0894V19.089H43.1178V17.0894H43.6178ZM43.6129 19.04C43.6216 19.0832 43.6354 19.1249 43.6507 19.1545C43.6582 19.1688 43.6636 19.1756 43.6651 19.1773C43.6666 19.179 43.6603 19.1712 43.644 19.164C43.6255 19.1557 43.6035 19.1526 43.5835 19.1556C43.5658 19.1582 43.561 19.1639 43.5702 19.1576C43.5797 19.151 43.5989 19.1352 43.6266 19.1021C43.654 19.0694 43.6869 19.0235 43.7247 18.9604L44.1535 19.2177C44.0605 19.3727 43.9627 19.4944 43.8537 19.5694C43.7342 19.6517 43.586 19.6852 43.4415 19.6211C43.3185 19.5666 43.2468 19.4614 43.2071 19.3851C43.1645 19.3031 43.1378 19.2139 43.1226 19.1381L43.6129 19.04Z" fill="white"/>
<circle cx="42.2247" cy="10.2335" r="1.14264" stroke="white" stroke-width="0.5"/>
<circle cx="47.9385" cy="10.2335" r="1.14264" stroke="white" stroke-width="0.5"/>
<circle cx="45.0806" cy="14.5181" r="0.856978" stroke="white" stroke-width="0.5"/>
<path d="M40.9398 22.0882H41.1898H40.9398ZM42.2252 22.0882L42.4718 22.1293C42.4741 22.1157 42.4752 22.1019 42.4752 22.0882H42.2252ZM39.6543 17.3748H39.4043V17.3886L39.4058 17.4024L39.6543 17.3748ZM41.0826 12.2329V11.9829H41.0578L41.0336 11.9878L41.0826 12.2329ZM43.6535 12.2329L43.7653 12.0093L43.7125 11.9829H43.6535V12.2329ZM40.6898 22.0882C40.6898 22.3204 40.8069 22.5101 40.9578 22.6395C41.1076 22.7679 41.3023 22.8488 41.4997 22.8721C41.6977 22.8954 41.9165 22.8623 42.1028 22.7381C42.2943 22.6104 42.4262 22.4032 42.4718 22.1293L41.9786 22.0471C41.9529 22.2016 41.8884 22.2801 41.8254 22.322C41.7573 22.3674 41.6636 22.3879 41.5581 22.3755C41.452 22.363 41.3522 22.319 41.2832 22.2599C41.2155 22.2018 41.1898 22.1416 41.1898 22.0882L40.6898 22.0882ZM42.4752 22.0882V17.9461H41.9752V22.0882H42.4752ZM39.4043 14.0897V17.3748H39.9043V14.0897H39.4043ZM40.6898 14.0897V17.3748H41.1898V14.0897H40.6898ZM40.6898 17.3748V22.0882H41.1898V17.3748H40.6898ZM39.4058 17.4024C39.4442 17.7473 39.7604 18.0315 40.1041 18.1018C40.2876 18.1393 40.4907 18.1204 40.6833 18.0167C40.8749 17.9136 41.0384 17.7364 41.1634 17.4866L40.7162 17.263C40.6268 17.4416 40.5285 17.5322 40.4464 17.5764C40.3652 17.6201 40.2827 17.6279 40.2043 17.6119C40.0243 17.5751 39.9121 17.4307 39.9028 17.3472L39.4058 17.4024ZM39.9043 14.0897C39.9043 13.8646 39.9675 13.5021 40.1563 13.1758C40.3408 12.8571 40.6421 12.576 41.1316 12.4781L41.0336 11.9878C40.3805 12.1184 39.9676 12.5038 39.7236 12.9254C39.4839 13.3394 39.4043 13.7911 39.4043 14.0897H39.9043ZM41.0826 12.4829H43.6535V11.9829H41.0826V12.4829ZM43.5417 12.4565C43.7055 12.5384 43.9538 12.7101 44.1444 12.9467C44.3333 13.1813 44.4501 13.4587 44.4059 13.7687L44.9008 13.8394C44.9708 13.3495 44.7782 12.9366 44.5338 12.6331C44.2911 12.3318 43.9824 12.1179 43.7653 12.0093L43.5417 12.4565Z" fill="white"/>
<path d="M40.9398 22.0882H41.1898H40.9398ZM42.2252 22.0882L42.4718 22.1293C42.4741 22.1157 42.4752 22.1019 42.4752 22.0882H42.2252ZM39.6543 17.3748H39.4043V17.3886L39.4058 17.4024L39.6543 17.3748ZM41.0826 12.2329V11.9829H41.0578L41.0336 11.9878L41.0826 12.2329ZM43.6535 12.2329L43.7653 12.0093L43.7125 11.9829H43.6535V12.2329ZM40.6898 22.0882C40.6898 22.3204 40.8069 22.5101 40.9578 22.6395C41.1076 22.7679 41.3023 22.8488 41.4997 22.8721C41.6977 22.8954 41.9165 22.8623 42.1028 22.7381C42.2943 22.6104 42.4262 22.4032 42.4718 22.1293L41.9786 22.0471C41.9529 22.2016 41.8884 22.2801 41.8254 22.322C41.7573 22.3674 41.6636 22.3879 41.5581 22.3755C41.452 22.363 41.3522 22.319 41.2832 22.2599C41.2155 22.2018 41.1898 22.1416 41.1898 22.0882L40.6898 22.0882ZM42.4752 22.0882V17.9461H41.9752V22.0882H42.4752ZM39.4043 14.0897V17.3748H39.9043V14.0897H39.4043ZM40.6898 14.0897V17.3748H41.1898V14.0897H40.6898ZM40.6898 17.3748V22.0882H41.1898V17.3748H40.6898ZM39.4058 17.4024C39.4442 17.7473 39.7604 18.0315 40.1041 18.1018C40.2876 18.1393 40.4907 18.1204 40.6833 18.0167C40.8749 17.9136 41.0384 17.7364 41.1634 17.4866L40.7162 17.263C40.6268 17.4416 40.5285 17.5322 40.4464 17.5764C40.3652 17.6201 40.2827 17.6279 40.2043 17.6119C40.0243 17.5751 39.9121 17.4307 39.9028 17.3472L39.4058 17.4024ZM39.9043 14.0897C39.9043 13.8646 39.9675 13.5021 40.1563 13.1758C40.3408 12.8571 40.6421 12.576 41.1316 12.4781L41.0336 11.9878C40.3805 12.1184 39.9676 12.5038 39.7236 12.9254C39.4839 13.3394 39.4043 13.7911 39.4043 14.0897H39.9043ZM41.0826 12.4829H43.6535V11.9829H41.0826V12.4829ZM43.5417 12.4565C43.7055 12.5384 43.9538 12.7101 44.1444 12.9467C44.3333 13.1813 44.4501 13.4587 44.4059 13.7687L44.9008 13.8394C44.9708 13.3495 44.7782 12.9366 44.5338 12.6331C44.2911 12.3318 43.9824 12.1179 43.7653 12.0093L43.5417 12.4565Z" fill="white"/>
<path d="M43.5107 22.0884H43.2607H43.5107ZM42.2253 22.0884L41.9787 22.1295C41.9764 22.1159 41.9753 22.1021 41.9753 22.0884H42.2253ZM43.7607 22.0884C43.7607 22.3206 43.6436 22.5103 43.4927 22.6397C43.3429 22.7681 43.1482 22.849 42.9508 22.8723C42.7528 22.8955 42.534 22.8624 42.3477 22.7382C42.1563 22.6106 42.0243 22.4034 41.9787 22.1295L42.4719 22.0473C42.4976 22.2018 42.5621 22.2802 42.6251 22.3222C42.6932 22.3676 42.7869 22.3881 42.8924 22.3757C42.9985 22.3632 43.0983 22.3192 43.1673 22.2601C43.235 22.202 43.2607 22.1418 43.2607 22.0884L43.7607 22.0884ZM41.9753 22.0884V17.9463H42.4753V22.0884H41.9753ZM43.7607 19.7317V22.0884H43.2607V19.7317H43.7607Z" fill="white"/>
<path d="M43.5107 22.0884H43.2607H43.5107ZM42.2253 22.0884L41.9787 22.1295C41.9764 22.1159 41.9753 22.1021 41.9753 22.0884H42.2253ZM43.7607 22.0884C43.7607 22.3206 43.6436 22.5103 43.4927 22.6397C43.3429 22.7681 43.1482 22.849 42.9508 22.8723C42.7528 22.8955 42.534 22.8624 42.3477 22.7382C42.1563 22.6106 42.0243 22.4034 41.9787 22.1295L42.4719 22.0473C42.4976 22.2018 42.5621 22.2802 42.6251 22.3222C42.6932 22.3676 42.7869 22.3881 42.8924 22.3757C42.9985 22.3632 43.0983 22.3192 43.1673 22.2601C43.235 22.202 43.2607 22.1418 43.2607 22.0884L43.7607 22.0884ZM41.9753 22.0884V17.9463H42.4753V22.0884H41.9753ZM43.7607 19.7317V22.0884H43.2607V19.7317H43.7607Z" fill="white"/>
<path d="M46.5098 22.0883H46.7598H46.5098ZM47.7952 22.0883L48.0418 22.1294C48.0441 22.1158 48.0452 22.1021 48.0452 22.0883H47.7952ZM46.2598 22.0883C46.2598 22.3205 46.3769 22.5103 46.5278 22.6397C46.6776 22.768 46.8723 22.849 47.0697 22.8722C47.2677 22.8955 47.4865 22.8624 47.6728 22.7382C47.8643 22.6106 47.9962 22.4034 48.0418 22.1294L47.5486 22.0472C47.5229 22.2017 47.4584 22.2802 47.3954 22.3222C47.3273 22.3676 47.2336 22.388 47.1281 22.3756C47.022 22.3631 46.9222 22.3191 46.8532 22.26C46.7855 22.202 46.7598 22.1418 46.7598 22.0883L46.2598 22.0883ZM48.0452 22.0883V18.8032H47.5452V22.0883H48.0452ZM46.2598 19.7316V22.0883H46.7598V19.7316H46.2598Z" fill="white"/>
<path d="M46.5098 22.0883H46.7598H46.5098ZM47.7952 22.0883L48.0418 22.1294C48.0441 22.1158 48.0452 22.1021 48.0452 22.0883H47.7952ZM46.2598 22.0883C46.2598 22.3205 46.3769 22.5103 46.5278 22.6397C46.6776 22.768 46.8723 22.849 47.0697 22.8722C47.2677 22.8955 47.4865 22.8624 47.6728 22.7382C47.8643 22.6106 47.9962 22.4034 48.0418 22.1294L47.5486 22.0472C47.5229 22.2017 47.4584 22.2802 47.3954 22.3222C47.3273 22.3676 47.2336 22.388 47.1281 22.3756C47.022 22.3631 46.9222 22.3191 46.8532 22.26C46.7855 22.202 46.7598 22.1418 46.7598 22.0883L46.2598 22.0883ZM48.0452 22.0883V18.8032H47.5452V22.0883H48.0452ZM46.2598 19.7316V22.0883H46.7598V19.7316H46.2598Z" fill="white"/>
<path d="M49.0934 22.0882H48.8434H49.0934ZM47.808 22.0882L47.5614 22.1293C47.5591 22.1157 47.558 22.1019 47.558 22.0882H47.808ZM50.3789 17.3748H50.6291L50.6287 17.3853L50.3789 17.3748ZM48.9506 12.2329V11.9829H48.9754L48.9996 11.9878L48.9506 12.2329ZM46.3797 12.2329L46.2679 12.0093L46.3207 11.9829H46.3797V12.2329ZM49.6528 18.9459L49.9011 18.9173C49.9093 18.9881 49.8868 19.0591 49.8394 19.1123C49.7919 19.1655 49.724 19.1959 49.6528 19.1959V18.9459ZM49.4718 17.3748L49.2234 17.4034L49.4718 17.3748ZM49.3434 22.0882C49.3434 22.3204 49.2263 22.5101 49.0754 22.6395C48.9256 22.7679 48.7309 22.8488 48.5335 22.8721C48.3355 22.8954 48.1167 22.8623 47.9304 22.7381C47.7389 22.6104 47.607 22.4032 47.5614 22.1293L48.0546 22.0471C48.0803 22.2016 48.1448 22.2801 48.2078 22.322C48.2759 22.3674 48.3696 22.3879 48.4751 22.3755C48.5812 22.363 48.681 22.319 48.75 22.2599C48.8177 22.2018 48.8434 22.1416 48.8434 22.0882L49.3434 22.0882ZM47.558 22.0882V18.8031H48.058V22.0882H47.558ZM50.6289 14.0897V17.3748H50.1289V14.0897H50.6289ZM50.1289 14.0897C50.1289 13.8646 50.0657 13.5021 49.8769 13.1758C49.6924 12.8571 49.3911 12.576 48.9016 12.4781L48.9996 11.9878C49.6527 12.1184 50.0656 12.5038 50.3096 12.9254C50.5493 13.3394 50.6289 13.7911 50.6289 14.0897H50.1289ZM48.9506 12.4829H46.3797V11.9829H48.9506V12.4829ZM46.4915 12.4565C46.3277 12.5384 46.0794 12.7101 45.8888 12.9467C45.6999 13.1813 45.5831 13.4587 45.6274 13.7687L45.1324 13.8394C45.0624 13.3495 45.255 12.9366 45.4994 12.6331C45.7421 12.3318 46.0508 12.1179 46.2679 12.0093L46.4915 12.4565ZM49.6528 19.1959H46.7962V18.6959H49.6528V19.1959ZM49.3434 18.8031V22.0882H48.8434V18.8031H49.3434ZM49.3418 14.0611L49.7202 17.3462L49.2234 17.4034L48.8451 14.1183L49.3418 14.0611ZM49.7202 17.3462L49.9011 18.9173L49.4044 18.9745L49.2234 17.4034L49.7202 17.3462ZM50.6287 17.3853C50.6223 17.5376 50.5441 17.6662 50.451 17.7558C50.356 17.8472 50.2297 17.9146 50.0897 17.9416C49.7888 17.9997 49.4635 17.8672 49.2543 17.498L49.6893 17.2515C49.75 17.3586 49.8122 17.4086 49.8593 17.4319C49.9062 17.4551 49.9523 17.4589 49.9948 17.4507C50.0397 17.442 50.0787 17.4202 50.1043 17.3955C50.1318 17.369 50.1295 17.3548 50.1291 17.3643L50.6287 17.3853Z" fill="white"/>
<path d="M49.0934 22.0882H48.8434H49.0934ZM47.808 22.0882L47.5614 22.1293C47.5591 22.1157 47.558 22.1019 47.558 22.0882H47.808ZM50.3789 17.3748H50.6291L50.6287 17.3853L50.3789 17.3748ZM48.9506 12.2329V11.9829H48.9754L48.9996 11.9878L48.9506 12.2329ZM46.3797 12.2329L46.2679 12.0093L46.3207 11.9829H46.3797V12.2329ZM49.6528 18.9459L49.9011 18.9173C49.9093 18.9881 49.8868 19.0591 49.8394 19.1123C49.7919 19.1655 49.724 19.1959 49.6528 19.1959V18.9459ZM49.4718 17.3748L49.2234 17.4034L49.4718 17.3748ZM49.3434 22.0882C49.3434 22.3204 49.2263 22.5101 49.0754 22.6395C48.9256 22.7679 48.7309 22.8488 48.5335 22.8721C48.3355 22.8954 48.1167 22.8623 47.9304 22.7381C47.7389 22.6104 47.607 22.4032 47.5614 22.1293L48.0546 22.0471C48.0803 22.2016 48.1448 22.2801 48.2078 22.322C48.2759 22.3674 48.3696 22.3879 48.4751 22.3755C48.5812 22.363 48.681 22.319 48.75 22.2599C48.8177 22.2018 48.8434 22.1416 48.8434 22.0882L49.3434 22.0882ZM47.558 22.0882V18.8031H48.058V22.0882H47.558ZM50.6289 14.0897V17.3748H50.1289V14.0897H50.6289ZM50.1289 14.0897C50.1289 13.8646 50.0657 13.5021 49.8769 13.1758C49.6924 12.8571 49.3911 12.576 48.9016 12.4781L48.9996 11.9878C49.6527 12.1184 50.0656 12.5038 50.3096 12.9254C50.5493 13.3394 50.6289 13.7911 50.6289 14.0897H50.1289ZM48.9506 12.4829H46.3797V11.9829H48.9506V12.4829ZM46.4915 12.4565C46.3277 12.5384 46.0794 12.7101 45.8888 12.9467C45.6999 13.1813 45.5831 13.4587 45.6274 13.7687L45.1324 13.8394C45.0624 13.3495 45.255 12.9366 45.4994 12.6331C45.7421 12.3318 46.0508 12.1179 46.2679 12.0093L46.4915 12.4565ZM49.6528 19.1959H46.7962V18.6959H49.6528V19.1959ZM49.3434 18.8031V22.0882H48.8434V18.8031H49.3434ZM49.3418 14.0611L49.7202 17.3462L49.2234 17.4034L48.8451 14.1183L49.3418 14.0611ZM49.7202 17.3462L49.9011 18.9173L49.4044 18.9745L49.2234 17.4034L49.7202 17.3462ZM50.6287 17.3853C50.6223 17.5376 50.5441 17.6662 50.451 17.7558C50.356 17.8472 50.2297 17.9146 50.0897 17.9416C49.7888 17.9997 49.4635 17.8672 49.2543 17.498L49.6893 17.2515C49.75 17.3586 49.8122 17.4086 49.8593 17.4319C49.9062 17.4551 49.9523 17.4589 49.9948 17.4507C50.0397 17.442 50.0787 17.4202 50.1043 17.3955C50.1318 17.369 50.1295 17.3548 50.1291 17.3643L50.6287 17.3853Z" fill="white"/>
<path d="M38.5117 23.6634C39.1783 23.711 40.7684 24.2347 41.7968 25.9487C42.8252 27.6626 44.3201 28.1863 44.9391 28.2339C45.7008 28.2815 47.4529 27.8911 48.367 25.9487C49.2811 24.0062 51.0331 23.6158 51.7949 23.6634" stroke="white" stroke-width="0.5" stroke-linecap="round"/>
<path d="M38.5127 28.2336C39.1792 28.186 40.7694 27.6623 41.7978 25.9483C42.8262 24.2344 44.3211 23.7106 44.94 23.663C45.7018 23.6154 47.4538 24.0058 48.3679 25.9483C49.2821 27.8908 51.0341 28.2812 51.7959 28.2336" stroke="white" stroke-width="0.5" stroke-linecap="round"/>
<path d="M38.7979 24.2305L38.7979 27.6584" stroke="white" stroke-width="0.5" stroke-linecap="round" stroke-linejoin="round"/>
<path d="M39.6553 24.8013L39.6553 27.0865" stroke="white" stroke-width="0.5" stroke-linecap="round" stroke-linejoin="round"/>
<path d="M40.5107 25.373L40.5107 26.5157" stroke="white" stroke-width="0.5" stroke-linecap="round" stroke-linejoin="round"/>
<path d="M45.6533 24.2305L45.6533 27.6584" stroke="white" stroke-width="0.5" stroke-linecap="round" stroke-linejoin="round"/>
<path d="M46.5107 24.8013L46.5107 27.0865" stroke="white" stroke-width="0.5" stroke-linecap="round" stroke-linejoin="round"/>
<path d="M47.3662 25.373L47.3662 26.5157" stroke="white" stroke-width="0.5" stroke-linecap="round" stroke-linejoin="round"/>
<path d="M44.7959 24.2305L44.7959 27.6584" stroke="white" stroke-width="0.5" stroke-linecap="round" stroke-linejoin="round"/>
<path d="M43.9385 24.8013L43.9385 27.0865" stroke="white" stroke-width="0.5" stroke-linecap="round" stroke-linejoin="round"/>
<path d="M43.0811 25.373L43.0811 26.5157" stroke="white" stroke-width="0.5" stroke-linecap="round" stroke-linejoin="round"/>
<path d="M51.3672 24.2305L51.3672 27.6584" stroke="white" stroke-width="0.5" stroke-linecap="round" stroke-linejoin="round"/>
<path d="M50.5107 24.8013L50.5107 27.0865" stroke="white" stroke-width="0.5" stroke-linecap="round" stroke-linejoin="round"/>
<path d="M49.6533 25.373L49.6533 26.5157" stroke="white" stroke-width="0.5" stroke-linecap="round" stroke-linejoin="round"/>
</svg>
