<svg width="91" height="91" viewBox="0 0 91 91" fill="none" xmlns="http://www.w3.org/2000/svg">
<path d="M15.0729 28.2464V1H76.2293L76.0812 28.2464" stroke="#495494" stroke-width="1.5"/>
<path d="M15.0729 62.3048V89.5513H76.2293L76.0812 62.3048" stroke="#495494" stroke-width="1.5"/>
<path d="M1.58169 46.156C1.24569 46.156 1.07769 45.964 1.07769 45.58V38.296H7.14969V45.58C7.14969 45.964 6.98169 46.156 6.64569 46.156C6.30969 46.156 6.14169 45.964 6.14169 45.58V39.304H2.08569V45.58C2.08569 45.964 1.91769 46.156 1.58169 46.156ZM14.0504 46.18C13.4184 46.18 12.8704 46.06 12.4064 45.82C11.9424 45.58 11.5844 45.24 11.3324 44.8C11.0804 44.36 10.9544 43.84 10.9544 43.24V41.128C10.9544 40.528 11.0804 40.008 11.3324 39.568C11.5844 39.128 11.9424 38.788 12.4064 38.548C12.8704 38.308 13.4184 38.188 14.0504 38.188C14.6784 38.188 15.2244 38.31 15.6884 38.554C16.1524 38.794 16.5104 39.134 16.7624 39.574C17.0184 40.014 17.1464 40.532 17.1464 41.128V43.24C17.1464 43.836 17.0184 44.354 16.7624 44.794C16.5104 45.234 16.1524 45.576 15.6884 45.82C15.2244 46.06 14.6784 46.18 14.0504 46.18ZM14.0504 45.172C14.7304 45.172 15.2484 45.004 15.6044 44.668C15.9604 44.328 16.1384 43.84 16.1384 43.204V41.164C16.1384 40.504 15.9584 40.012 15.5984 39.688C15.2384 39.36 14.7224 39.196 14.0504 39.196C13.3744 39.196 12.8564 39.364 12.4964 39.7C12.1404 40.036 11.9624 40.524 11.9624 41.164V43.204C11.9624 43.84 12.1404 44.328 12.4964 44.668C12.8564 45.004 13.3744 45.172 14.0504 45.172ZM25.9285 46.156C25.5925 46.156 25.4245 45.96 25.4245 45.568V39.304H23.1205C22.8485 39.304 22.6665 39.338 22.5745 39.406C22.4825 39.47 22.4365 39.6 22.4365 39.796V44.404C22.4365 44.796 22.3805 45.116 22.2685 45.364C22.1605 45.608 21.9865 45.788 21.7465 45.904C21.5105 46.016 21.2005 46.072 20.8165 46.072C20.4005 46.072 20.1925 45.904 20.1925 45.568C20.1925 45.232 20.4005 45.064 20.8165 45.064C21.0085 45.064 21.1345 45.034 21.1945 44.974C21.2545 44.91 21.2845 44.78 21.2845 44.584V39.964C21.2845 39.54 21.3385 39.208 21.4465 38.968C21.5545 38.724 21.7345 38.552 21.9865 38.452C22.2425 38.348 22.5925 38.296 23.0365 38.296H26.4325V45.568C26.4325 45.96 26.2645 46.156 25.9285 46.156ZM30.9833 46.156C30.6473 46.156 30.4793 45.972 30.4793 45.604V38.776C30.4793 38.4 30.6473 38.212 30.9833 38.212C31.3193 38.212 31.4873 38.4 31.4873 38.776V45.604C31.4873 45.972 31.3193 46.156 30.9833 46.156ZM36.0141 46.156C35.8661 46.156 35.7461 46.106 35.6541 46.006C35.5661 45.906 35.5221 45.772 35.5221 45.604V39.16C35.5221 38.996 35.5681 38.858 35.6601 38.746C35.7521 38.63 35.8821 38.572 36.0501 38.572C36.3701 38.572 36.5301 38.768 36.5301 39.16V41.944H37.4901C37.5981 41.944 37.7201 41.89 37.8561 41.782C37.9921 41.67 38.1521 41.49 38.3361 41.242C38.5201 40.99 38.7381 40.652 38.9901 40.228C39.0741 40.088 39.1761 39.924 39.2961 39.736C39.4161 39.544 39.5541 39.36 39.7101 39.184C39.8701 39.004 40.0501 38.856 40.2501 38.74C40.4541 38.62 40.6781 38.56 40.9221 38.56C41.3381 38.56 41.5461 38.74 41.5461 39.1C41.5461 39.292 41.4861 39.412 41.3661 39.46C41.2501 39.508 41.1021 39.544 40.9221 39.568C40.7501 39.592 40.5941 39.69 40.4541 39.862C40.3181 40.03 40.1421 40.288 39.9261 40.636C39.7421 40.936 39.5941 41.176 39.4821 41.356C39.3741 41.536 39.2781 41.686 39.1941 41.806C39.1101 41.926 39.0101 42.044 38.8941 42.16C38.7821 42.272 38.6261 42.412 38.4261 42.58L38.4021 42.268C38.6501 42.468 38.8681 42.678 39.0561 42.898C39.2481 43.114 39.4181 43.33 39.5661 43.546C39.7141 43.762 39.8501 43.968 39.9741 44.164C40.1861 44.488 40.3581 44.726 40.4901 44.878C40.6261 45.026 40.7741 45.116 40.9341 45.148C40.9941 45.16 41.0721 45.176 41.1681 45.196C41.2681 45.212 41.3561 45.254 41.4321 45.322C41.5081 45.39 41.5461 45.504 41.5461 45.664C41.5461 45.992 41.3501 46.156 40.9581 46.156C40.6661 46.156 40.3641 46.06 40.0521 45.868C39.7441 45.672 39.4461 45.38 39.1581 44.992C39.0941 44.9 38.9961 44.76 38.8641 44.572C38.7361 44.38 38.6181 44.204 38.5101 44.044C38.2661 43.676 38.0561 43.402 37.8801 43.222C37.7081 43.042 37.5381 42.952 37.3701 42.952H36.5301V45.604C36.5301 45.764 36.4821 45.896 36.3861 46C36.2941 46.104 36.1701 46.156 36.0141 46.156ZM50.0686 46.156C49.7326 46.156 49.5646 45.96 49.5646 45.568V39.304H47.2606C46.9886 39.304 46.8066 39.338 46.7146 39.406C46.6226 39.47 46.5766 39.6 46.5766 39.796V44.404C46.5766 44.796 46.5206 45.116 46.4086 45.364C46.3006 45.608 46.1266 45.788 45.8866 45.904C45.6506 46.016 45.3406 46.072 44.9566 46.072C44.5406 46.072 44.3326 45.904 44.3326 45.568C44.3326 45.232 44.5406 45.064 44.9566 45.064C45.1486 45.064 45.2746 45.034 45.3346 44.974C45.3946 44.91 45.4246 44.78 45.4246 44.584V39.964C45.4246 39.54 45.4786 39.208 45.5866 38.968C45.6946 38.724 45.8746 38.552 46.1266 38.452C46.3826 38.348 46.7326 38.296 47.1766 38.296H50.5726V45.568C50.5726 45.96 50.4046 46.156 50.0686 46.156ZM55.1234 46.156C54.7874 46.156 54.6194 45.972 54.6194 45.604V38.776C54.6194 38.4 54.7874 38.212 55.1234 38.212C55.4594 38.212 55.6274 38.4 55.6274 38.776V45.604C55.6274 45.972 55.4594 46.156 55.1234 46.156ZM60.1662 46.156C59.8302 46.156 59.6622 45.964 59.6622 45.58V38.8C59.6622 38.408 59.8222 38.212 60.1422 38.212C60.4942 38.212 60.6702 38.408 60.6702 38.8V41.38H64.8463V38.8C64.8463 38.408 65.0143 38.212 65.3503 38.212C65.6863 38.212 65.8543 38.408 65.8543 38.8V45.58C65.8543 45.964 65.6863 46.156 65.3503 46.156C65.0143 46.156 64.8463 45.964 64.8463 45.58V42.388H60.6702V45.58C60.6702 45.964 60.5022 46.156 60.1662 46.156ZM70.3887 46.156C70.0527 46.156 69.8847 45.972 69.8847 45.604V38.776C69.8847 38.4 70.0527 38.212 70.3887 38.212C70.7247 38.212 70.8927 38.4 70.8927 38.776V45.604C70.8927 45.972 70.7247 46.156 70.3887 46.156ZM75.4196 46.156C75.2716 46.156 75.1516 46.106 75.0596 46.006C74.9716 45.906 74.9276 45.772 74.9276 45.604V39.16C74.9276 38.996 74.9736 38.858 75.0656 38.746C75.1576 38.63 75.2876 38.572 75.4556 38.572C75.7756 38.572 75.9356 38.768 75.9356 39.16V41.944H76.8956C77.0036 41.944 77.1256 41.89 77.2616 41.782C77.3976 41.67 77.5576 41.49 77.7416 41.242C77.9256 40.99 78.1436 40.652 78.3956 40.228C78.4796 40.088 78.5816 39.924 78.7016 39.736C78.8216 39.544 78.9596 39.36 79.1156 39.184C79.2756 39.004 79.4556 38.856 79.6556 38.74C79.8596 38.62 80.0836 38.56 80.3276 38.56C80.7436 38.56 80.9516 38.74 80.9516 39.1C80.9516 39.292 80.8916 39.412 80.7716 39.46C80.6556 39.508 80.5076 39.544 80.3276 39.568C80.1556 39.592 79.9996 39.69 79.8596 39.862C79.7236 40.03 79.5476 40.288 79.3316 40.636C79.1476 40.936 78.9996 41.176 78.8876 41.356C78.7796 41.536 78.6836 41.686 78.5996 41.806C78.5156 41.926 78.4156 42.044 78.2996 42.16C78.1876 42.272 78.0316 42.412 77.8316 42.58L77.8076 42.268C78.0556 42.468 78.2736 42.678 78.4616 42.898C78.6536 43.114 78.8236 43.33 78.9716 43.546C79.1196 43.762 79.2556 43.968 79.3796 44.164C79.5916 44.488 79.7636 44.726 79.8956 44.878C80.0316 45.026 80.1796 45.116 80.3396 45.148C80.3996 45.16 80.4776 45.176 80.5736 45.196C80.6736 45.212 80.7616 45.254 80.8376 45.322C80.9136 45.39 80.9516 45.504 80.9516 45.664C80.9516 45.992 80.7556 46.156 80.3636 46.156C80.0716 46.156 79.7696 46.06 79.4576 45.868C79.1496 45.672 78.8516 45.38 78.5636 44.992C78.4996 44.9 78.4016 44.76 78.2696 44.572C78.1416 44.38 78.0236 44.204 77.9156 44.044C77.6716 43.676 77.4616 43.402 77.2856 43.222C77.1136 43.042 76.9436 42.952 76.7756 42.952H75.9356V45.604C75.9356 45.764 75.8876 45.896 75.7916 46C75.6996 46.104 75.5756 46.156 75.4196 46.156ZM84.2661 46.264C84.1301 46.264 84.0121 46.22 83.9121 46.132C83.8121 46.048 83.7621 45.948 83.7621 45.832C83.7621 45.712 83.7761 45.612 83.8041 45.532L86.6661 38.296H87.7461L90.6081 45.532C90.6361 45.612 90.6501 45.712 90.6501 45.832C90.6501 45.948 90.6001 46.048 90.5001 46.132C90.4001 46.22 90.2821 46.264 90.1461 46.264C89.8981 46.264 89.7281 46.136 89.6361 45.88L88.8261 43.804H85.5861L84.7761 45.886C84.6681 46.138 84.4981 46.264 84.2661 46.264ZM85.9941 42.796H88.4181L87.1941 39.808L85.9941 42.796Z" fill="#495494"/>
<path d="M29.765 57.2146C28.993 57.2146 28.381 57.1426 27.929 56.9986C27.477 56.8546 27.151 56.6166 26.951 56.2846C26.755 55.9526 26.657 55.5026 26.657 54.9346V51.7186C26.657 51.1586 26.751 50.7126 26.939 50.3806C27.127 50.0486 27.433 49.8086 27.857 49.6606C28.281 49.5126 28.845 49.4386 29.549 49.4386H31.457C31.773 49.4386 32.033 49.4946 32.237 49.6066C32.445 49.7146 32.599 49.8726 32.699 50.0806C32.799 50.2886 32.849 50.5386 32.849 50.8306C32.849 51.3346 32.681 51.5866 32.345 51.5866C32.165 51.5866 32.039 51.5306 31.967 51.4186C31.895 51.3026 31.853 51.1466 31.841 50.9506C31.829 50.7626 31.801 50.6326 31.757 50.5606C31.717 50.4846 31.589 50.4466 31.373 50.4466H29.549C29.021 50.4466 28.621 50.4786 28.349 50.5426C28.081 50.6066 27.899 50.7326 27.803 50.9206C27.711 51.1046 27.665 51.3786 27.665 51.7426V54.9106C27.665 55.2786 27.715 55.5566 27.815 55.7446C27.915 55.9286 28.115 56.0526 28.415 56.1166C28.715 56.1766 29.165 56.2066 29.765 56.2066H31.373C31.589 56.2066 31.717 56.1686 31.757 56.0926C31.801 56.0166 31.829 55.8866 31.841 55.7026C31.861 55.4746 31.909 55.3126 31.985 55.2166C32.065 55.1166 32.185 55.0666 32.345 55.0666C32.521 55.0706 32.649 55.1346 32.729 55.2586C32.809 55.3786 32.849 55.5706 32.849 55.8346C32.849 56.1266 32.799 56.3766 32.699 56.5846C32.599 56.7886 32.445 56.9446 32.237 57.0526C32.033 57.1606 31.773 57.2146 31.457 57.2146H29.765ZM36.9273 57.2986C36.5913 57.2986 36.4233 57.1146 36.4233 56.7466V49.9186C36.4233 49.5426 36.5913 49.3546 36.9273 49.3546C37.2633 49.3546 37.4313 49.5426 37.4313 49.9186V56.7466C37.4313 57.1146 37.2633 57.2986 36.9273 57.2986ZM41.8502 57.2986C41.5142 57.2986 41.3462 57.1066 41.3462 56.7226V49.9426C41.3462 49.5506 41.5062 49.3546 41.8262 49.3546C42.0222 49.3546 42.1942 49.4566 42.3422 49.6606L44.5622 52.7686L46.7942 49.6606C46.9382 49.4566 47.1062 49.3546 47.2982 49.3546C47.6262 49.3546 47.7902 49.5506 47.7902 49.9426V56.7226C47.7902 57.1066 47.6222 57.2986 47.2862 57.2986C46.9502 57.2986 46.7822 57.0946 46.7822 56.6866V51.0946L45.0002 53.6266C44.9322 53.7266 44.8662 53.7926 44.8022 53.8246C44.7382 53.8526 44.6622 53.8666 44.5742 53.8666C44.4822 53.8666 44.4022 53.8526 44.3342 53.8246C44.2702 53.7926 44.2042 53.7266 44.1362 53.6266L42.3542 51.0946V56.6866C42.3542 57.0946 42.1862 57.2986 41.8502 57.2986ZM51.7365 51.4546C51.6125 51.4546 51.4945 51.4086 51.3825 51.3166C51.2745 51.2206 51.2565 51.0826 51.3285 50.9026L51.9525 49.2586L52.7445 49.5826L52.1205 51.2146C52.0965 51.2866 52.0465 51.3446 51.9705 51.3886C51.8985 51.4326 51.8205 51.4546 51.7365 51.4546ZM52.0245 49.8706C51.7045 49.8706 51.5445 49.7106 51.5445 49.3906V49.0906C51.5445 48.7786 51.7045 48.6226 52.0245 48.6226H52.3125C52.6165 48.6226 52.7685 48.7786 52.7685 49.0906V49.3906C52.7685 49.7106 52.6165 49.8706 52.3125 49.8706H52.0245ZM56.4942 57.2986C56.0862 57.2986 55.8822 57.1306 55.8822 56.7946C55.8822 56.5826 55.9462 56.4526 56.0742 56.4046C56.2062 56.3526 56.3502 56.3186 56.5062 56.3026C56.6982 56.2826 56.8482 56.1986 56.9562 56.0506C57.0682 55.9026 57.1382 55.7786 57.1662 55.6786L57.5022 54.4426C57.5382 54.3106 57.6002 54.1586 57.6882 53.9866C57.7802 53.8106 57.8982 53.6546 58.0422 53.5186C57.6222 53.3306 57.3142 53.0766 57.1182 52.7566C56.9262 52.4326 56.8302 52.0586 56.8302 51.6346C56.8302 50.9186 57.0802 50.3746 57.5802 50.0026C58.0842 49.6266 58.8062 49.4386 59.7462 49.4386H61.9542C62.2742 49.4386 62.4342 49.6426 62.4342 50.0506V56.7466C62.4342 57.1146 62.2662 57.2986 61.9302 57.2986C61.5862 57.2986 61.4142 57.1146 61.4142 56.7466V53.8066H59.7222C59.3742 53.8066 59.1042 53.8666 58.9122 53.9866C58.7242 54.1026 58.5902 54.3106 58.5102 54.6106L58.2102 55.7386C58.0822 56.2226 57.8562 56.6046 57.5322 56.8846C57.2122 57.1606 56.8662 57.2986 56.4942 57.2986ZM59.7462 52.7986H61.4142V50.4466H59.7462C59.1062 50.4466 58.6322 50.5426 58.3242 50.7346C58.0162 50.9226 57.8622 51.2186 57.8622 51.6226C57.8622 52.0186 58.0142 52.3146 58.3182 52.5106C58.6222 52.7026 59.0982 52.7986 59.7462 52.7986Z" fill="#495494"/>
<path d="M45.9379 15.9468L46.0497 15.7232L45.997 15.6968H45.9379V15.9468ZM46.9377 19.089L47.1829 19.1381L47.1877 19.1138V19.089H46.9377ZM46.5808 18.9604C46.5098 18.842 46.3562 18.8036 46.2378 18.8747C46.1194 18.9457 46.081 19.0993 46.1521 19.2177L46.5808 18.9604ZM44.5096 16.1968H45.9379V15.6968H44.5096V16.1968ZM45.8261 16.1704C46.0085 16.2616 46.2332 16.3915 46.4093 16.5573C46.5862 16.7238 46.6877 16.9006 46.6877 17.0894H47.1877C47.1877 16.7069 46.9798 16.4076 46.752 16.1932C46.5235 15.9781 46.2482 15.8224 46.0497 15.7232L45.8261 16.1704ZM46.6877 17.0894V19.089H47.1877V17.0894H46.6877ZM46.6926 19.04C46.684 19.0832 46.6702 19.1249 46.6548 19.1545C46.6473 19.1688 46.6419 19.1756 46.6404 19.1773C46.6389 19.179 46.6453 19.1712 46.6615 19.164C46.6801 19.1557 46.702 19.1526 46.722 19.1556C46.7398 19.1582 46.7446 19.1639 46.7354 19.1576C46.7258 19.151 46.7067 19.1352 46.6789 19.1021C46.6515 19.0694 46.6187 19.0235 46.5808 18.9604L46.1521 19.2177C46.2451 19.3727 46.3428 19.4944 46.4518 19.5694C46.5714 19.6517 46.7195 19.6852 46.864 19.6211C46.987 19.5666 47.0587 19.4614 47.0984 19.3851C47.1411 19.3031 47.1677 19.2139 47.1829 19.1381L46.6926 19.04Z" fill="#495494"/>
<path d="M45.9384 22.1503L46.1674 22.2506C46.1812 22.2189 46.1884 22.1848 46.1884 22.1503H45.9384ZM44.8314 19.7334V22.1503H45.3314V19.7334H44.8314ZM44.8314 22.1503C44.8314 22.2991 44.9166 22.4268 44.9934 22.5081C45.0778 22.5974 45.1948 22.6774 45.331 22.7183C45.4706 22.7602 45.637 22.7619 45.798 22.6794C45.957 22.5979 46.0801 22.4499 46.1674 22.2506L45.7094 22.05C45.6539 22.1768 45.5984 22.2199 45.5699 22.2345C45.5435 22.248 45.5135 22.251 45.4746 22.2394C45.4322 22.2266 45.3886 22.1983 45.3569 22.1648C45.3176 22.1232 45.3314 22.1134 45.3314 22.1503H44.8314ZM46.1884 22.1503V19.7335H45.6884V22.1503H46.1884Z" fill="#495494"/>
<path d="M45.0807 22.1503L45.3097 22.2506C45.3236 22.2189 45.3307 22.1848 45.3307 22.1503H45.0807ZM43.9738 19.7334V22.1503H44.4738V19.7334H43.9738ZM43.9738 22.1503C43.9738 22.2991 44.059 22.4268 44.1357 22.5081C44.2201 22.5974 44.3372 22.6774 44.4733 22.7183C44.6129 22.7602 44.7794 22.7619 44.9404 22.6794C45.0994 22.5979 45.2225 22.4499 45.3097 22.2506L44.8517 22.05C44.7962 22.1768 44.7407 22.2199 44.7123 22.2345C44.6858 22.248 44.6558 22.251 44.617 22.2394C44.5745 22.2266 44.5309 22.1983 44.4993 22.1648C44.4599 22.1232 44.4738 22.1134 44.4738 22.1503H43.9738ZM45.3307 22.1503V19.7335H44.8307V22.1503H45.3307Z" fill="#495494"/>
<path d="M44.3671 15.9468L44.2553 15.7232L44.3081 15.6968H44.3671V15.9468ZM43.3673 19.089L43.1222 19.1381L43.1173 19.1138V19.089H43.3673ZM43.7243 18.9604C43.7953 18.842 43.9489 18.8036 44.0672 18.8747C44.1856 18.9457 44.224 19.0993 44.153 19.2177L43.7243 18.9604ZM45.7954 16.1968H44.3671V15.6968H45.7954V16.1968ZM44.4789 16.1704C44.2965 16.2616 44.0719 16.3915 43.8957 16.5573C43.7188 16.7238 43.6173 16.9006 43.6173 17.0894H43.1173C43.1173 16.7069 43.3253 16.4076 43.553 16.1932C43.7816 15.9781 44.0568 15.8224 44.2553 15.7232L44.4789 16.1704ZM43.6173 17.0894V19.089H43.1173V17.0894H43.6173ZM43.6124 19.04C43.6211 19.0832 43.6349 19.1249 43.6503 19.1545C43.6577 19.1688 43.6631 19.1756 43.6646 19.1773C43.6662 19.179 43.6598 19.1712 43.6435 19.164C43.625 19.1557 43.603 19.1526 43.583 19.1556C43.5653 19.1582 43.5605 19.1639 43.5697 19.1576C43.5792 19.151 43.5984 19.1352 43.6261 19.1021C43.6535 19.0694 43.6864 19.0235 43.7243 18.9604L44.153 19.2177C44.06 19.3727 43.9623 19.4944 43.8532 19.5694C43.7337 19.6517 43.5856 19.6852 43.441 19.6211C43.318 19.5666 43.2463 19.4614 43.2066 19.3851C43.164 19.3031 43.1373 19.2139 43.1222 19.1381L43.6124 19.04Z" fill="#495494"/>
<circle cx="42.2245" cy="10.2335" r="1.14264" stroke="#495494" stroke-width="0.5"/>
<circle cx="47.9379" cy="10.2335" r="1.14264" stroke="#495494" stroke-width="0.5"/>
<circle cx="45.0807" cy="14.5181" r="0.856978" stroke="#495494" stroke-width="0.5"/>
<path d="M40.9394 22.0882H41.1894H40.9394ZM42.2249 22.0882L42.4715 22.1293C42.4737 22.1157 42.4749 22.1019 42.4749 22.0882H42.2249ZM39.6539 17.3748H39.4039V17.3886L39.4055 17.4024L39.6539 17.3748ZM41.0822 12.2329V11.9829H41.0575L41.0332 11.9878L41.0822 12.2329ZM43.6532 12.2329L43.765 12.0093L43.7122 11.9829H43.6532V12.2329ZM40.6894 22.0882C40.6894 22.3204 40.8065 22.5101 40.9575 22.6395C41.1072 22.7679 41.3019 22.8488 41.4994 22.8721C41.6974 22.8954 41.9161 22.8623 42.1024 22.7381C42.2939 22.6104 42.4258 22.4032 42.4715 22.1293L41.9783 22.0471C41.9525 22.2016 41.888 22.2801 41.8251 22.322C41.757 22.3674 41.6633 22.3879 41.5578 22.3755C41.4517 22.363 41.3518 22.319 41.2829 22.2599C41.2151 22.2018 41.1894 22.1416 41.1894 22.0882H40.6894ZM42.4749 22.0882V17.9461H41.9749V22.0882H42.4749ZM39.4039 14.0897V17.3748H39.9039V14.0897H39.4039ZM40.6894 14.0897V17.3748H41.1894V14.0897H40.6894ZM40.6894 17.3748V22.0882H41.1894V17.3748H40.6894ZM39.4055 17.4024C39.4438 17.7473 39.7601 18.0315 40.1037 18.1018C40.2872 18.1393 40.4903 18.1204 40.6829 18.0167C40.8745 17.9136 41.0381 17.7364 41.163 17.4866L40.7158 17.263C40.6265 17.4416 40.5282 17.5322 40.446 17.5764C40.3649 17.6201 40.2823 17.6279 40.2039 17.6119C40.0239 17.5751 39.9117 17.4307 39.9024 17.3472L39.4055 17.4024ZM39.9039 14.0897C39.9039 13.8646 39.9671 13.5021 40.156 13.1758C40.3405 12.8571 40.6417 12.576 41.1313 12.4781L41.0332 11.9878C40.3801 12.1184 39.9672 12.5038 39.7232 12.9254C39.4836 13.3394 39.4039 13.7911 39.4039 14.0897H39.9039ZM41.0822 12.4829H43.6532V11.9829H41.0822V12.4829ZM43.5414 12.4565C43.7051 12.5384 43.9535 12.7101 44.144 12.9467C44.3329 13.1813 44.4498 13.4587 44.4055 13.7687L44.9005 13.8394C44.9704 13.3495 44.7778 12.9366 44.5335 12.6331C44.2908 12.3318 43.9821 12.1179 43.765 12.0093L43.5414 12.4565Z" fill="#495494"/>
<path d="M40.9394 22.0882H41.1894H40.9394ZM42.2249 22.0882L42.4715 22.1293C42.4737 22.1157 42.4749 22.1019 42.4749 22.0882H42.2249ZM39.6539 17.3748H39.4039V17.3886L39.4055 17.4024L39.6539 17.3748ZM41.0822 12.2329V11.9829H41.0575L41.0332 11.9878L41.0822 12.2329ZM43.6532 12.2329L43.765 12.0093L43.7122 11.9829H43.6532V12.2329ZM40.6894 22.0882C40.6894 22.3204 40.8065 22.5101 40.9575 22.6395C41.1072 22.7679 41.3019 22.8488 41.4994 22.8721C41.6974 22.8954 41.9161 22.8623 42.1024 22.7381C42.2939 22.6104 42.4258 22.4032 42.4715 22.1293L41.9783 22.0471C41.9525 22.2016 41.888 22.2801 41.8251 22.322C41.757 22.3674 41.6633 22.3879 41.5578 22.3755C41.4517 22.363 41.3518 22.319 41.2829 22.2599C41.2151 22.2018 41.1894 22.1416 41.1894 22.0882H40.6894ZM42.4749 22.0882V17.9461H41.9749V22.0882H42.4749ZM39.4039 14.0897V17.3748H39.9039V14.0897H39.4039ZM40.6894 14.0897V17.3748H41.1894V14.0897H40.6894ZM40.6894 17.3748V22.0882H41.1894V17.3748H40.6894ZM39.4055 17.4024C39.4438 17.7473 39.7601 18.0315 40.1037 18.1018C40.2872 18.1393 40.4903 18.1204 40.6829 18.0167C40.8745 17.9136 41.0381 17.7364 41.163 17.4866L40.7158 17.263C40.6265 17.4416 40.5282 17.5322 40.446 17.5764C40.3649 17.6201 40.2823 17.6279 40.2039 17.6119C40.0239 17.5751 39.9117 17.4307 39.9024 17.3472L39.4055 17.4024ZM39.9039 14.0897C39.9039 13.8646 39.9671 13.5021 40.156 13.1758C40.3405 12.8571 40.6417 12.576 41.1313 12.4781L41.0332 11.9878C40.3801 12.1184 39.9672 12.5038 39.7232 12.9254C39.4836 13.3394 39.4039 13.7911 39.4039 14.0897H39.9039ZM41.0822 12.4829H43.6532V11.9829H41.0822V12.4829ZM43.5414 12.4565C43.7051 12.5384 43.9535 12.7101 44.144 12.9467C44.3329 13.1813 44.4498 13.4587 44.4055 13.7687L44.9005 13.8394C44.9704 13.3495 44.7778 12.9366 44.5335 12.6331C44.2908 12.3318 43.9821 12.1179 43.765 12.0093L43.5414 12.4565Z" fill="#495494"/>
<path d="M43.5099 22.0884H43.2599H43.5099ZM42.2244 22.0884L41.9778 22.1295C41.9756 22.1159 41.9744 22.1021 41.9744 22.0884H42.2244ZM43.7599 22.0884C43.7599 22.3206 43.6428 22.5103 43.4918 22.6397C43.3421 22.7681 43.1473 22.849 42.9499 22.8723C42.7519 22.8955 42.5332 22.8624 42.3469 22.7382C42.1554 22.6106 42.0235 22.4034 41.9778 22.1295L42.471 22.0473C42.4968 22.2018 42.5612 22.2802 42.6242 22.3222C42.6923 22.3676 42.786 22.3881 42.8915 22.3757C42.9976 22.3632 43.0975 22.3192 43.1664 22.2601C43.2342 22.202 43.2599 22.1418 43.2599 22.0884H43.7599ZM41.9744 22.0884V17.9463H42.4744V22.0884H41.9744ZM43.7599 19.7317V22.0884H43.2599V19.7317H43.7599Z" fill="#495494"/>
<path d="M43.5099 22.0884H43.2599H43.5099ZM42.2244 22.0884L41.9778 22.1295C41.9756 22.1159 41.9744 22.1021 41.9744 22.0884H42.2244ZM43.7599 22.0884C43.7599 22.3206 43.6428 22.5103 43.4918 22.6397C43.3421 22.7681 43.1473 22.849 42.9499 22.8723C42.7519 22.8955 42.5332 22.8624 42.3469 22.7382C42.1554 22.6106 42.0235 22.4034 41.9778 22.1295L42.471 22.0473C42.4968 22.2018 42.5612 22.2802 42.6242 22.3222C42.6923 22.3676 42.786 22.3881 42.8915 22.3757C42.9976 22.3632 43.0975 22.3192 43.1664 22.2601C43.2342 22.202 43.2599 22.1418 43.2599 22.0884H43.7599ZM41.9744 22.0884V17.9463H42.4744V22.0884H41.9744ZM43.7599 19.7317V22.0884H43.2599V19.7317H43.7599Z" fill="#495494"/>
<path d="M46.5094 22.0883H46.7594H46.5094ZM47.7949 22.0883L48.0415 22.1294C48.0437 22.1158 48.0449 22.1021 48.0449 22.0883H47.7949ZM46.2594 22.0883C46.2594 22.3205 46.3765 22.5103 46.5275 22.6397C46.6772 22.768 46.872 22.849 47.0694 22.8722C47.2674 22.8955 47.4861 22.8624 47.6724 22.7382C47.8639 22.6106 47.9958 22.4034 48.0415 22.1294L47.5483 22.0472C47.5225 22.2017 47.458 22.2802 47.3951 22.3222C47.327 22.3676 47.2333 22.388 47.1278 22.3756C47.0217 22.3631 46.9218 22.3191 46.8529 22.26C46.7851 22.202 46.7594 22.1418 46.7594 22.0883H46.2594ZM48.0449 22.0883V18.8032H47.5449V22.0883H48.0449ZM46.2594 19.7316V22.0883H46.7594V19.7316H46.2594Z" fill="#495494"/>
<path d="M46.5094 22.0883H46.7594H46.5094ZM47.7949 22.0883L48.0415 22.1294C48.0437 22.1158 48.0449 22.1021 48.0449 22.0883H47.7949ZM46.2594 22.0883C46.2594 22.3205 46.3765 22.5103 46.5275 22.6397C46.6772 22.768 46.872 22.849 47.0694 22.8722C47.2674 22.8955 47.4861 22.8624 47.6724 22.7382C47.8639 22.6106 47.9958 22.4034 48.0415 22.1294L47.5483 22.0472C47.5225 22.2017 47.458 22.2802 47.3951 22.3222C47.327 22.3676 47.2333 22.388 47.1278 22.3756C47.0217 22.3631 46.9218 22.3191 46.8529 22.26C46.7851 22.202 46.7594 22.1418 46.7594 22.0883H46.2594ZM48.0449 22.0883V18.8032H47.5449V22.0883H48.0449ZM46.2594 19.7316V22.0883H46.7594V19.7316H46.2594Z" fill="#495494"/>
<path d="M49.0927 22.0882H48.8427H49.0927ZM47.8072 22.0882L47.5606 22.1293C47.5584 22.1157 47.5572 22.1019 47.5572 22.0882H47.8072ZM50.3782 17.3748H50.6284L50.628 17.3853L50.3782 17.3748ZM48.9499 12.2329V11.9829H48.9746L48.9989 11.9878L48.9499 12.2329ZM46.3789 12.2329L46.2671 12.0093L46.3199 11.9829H46.3789V12.2329ZM49.652 18.9459L49.9004 18.9173C49.9085 18.9881 49.8861 19.0591 49.8386 19.1123C49.7912 19.1655 49.7233 19.1959 49.652 19.1959V18.9459ZM49.4711 17.3748L49.2227 17.4034L49.4711 17.3748ZM49.3427 22.0882C49.3427 22.3204 49.2256 22.5101 49.0746 22.6395C48.9249 22.7679 48.7302 22.8488 48.5327 22.8721C48.3347 22.8954 48.116 22.8623 47.9297 22.7381C47.7382 22.6104 47.6063 22.4032 47.5606 22.1293L48.0538 22.0471C48.0796 22.2016 48.1441 22.2801 48.207 22.322C48.2751 22.3674 48.3688 22.3879 48.4743 22.3755C48.5804 22.363 48.6803 22.319 48.7492 22.2599C48.817 22.2018 48.8427 22.1416 48.8427 22.0882H49.3427ZM47.5572 22.0882V18.8031H48.0572V22.0882H47.5572ZM50.6282 14.0897V17.3748H50.1282V14.0897H50.6282ZM50.1282 14.0897C50.1282 13.8646 50.065 13.5021 49.8761 13.1758C49.6916 12.8571 49.3904 12.576 48.9008 12.4781L48.9989 11.9878C49.652 12.1184 50.0649 12.5038 50.3089 12.9254C50.5485 13.3394 50.6282 13.7911 50.6282 14.0897H50.1282ZM48.9499 12.4829H46.3789V11.9829H48.9499V12.4829ZM46.4907 12.4565C46.327 12.5384 46.0786 12.7101 45.8881 12.9467C45.6992 13.1813 45.5823 13.4587 45.6266 13.7687L45.1316 13.8394C45.0617 13.3495 45.2543 12.9366 45.4986 12.6331C45.7413 12.3318 46.05 12.1179 46.2671 12.0093L46.4907 12.4565ZM49.652 19.1959H46.7954V18.6959H49.652V19.1959ZM49.3427 18.8031V22.0882H48.8427V18.8031H49.3427ZM49.3411 14.0611L49.7194 17.3462L49.2227 17.4034L48.8443 14.1183L49.3411 14.0611ZM49.7194 17.3462L49.9004 18.9173L49.4037 18.9745L49.2227 17.4034L49.7194 17.3462ZM50.628 17.3853C50.6216 17.5376 50.5434 17.6662 50.4502 17.7558C50.3553 17.8472 50.2289 17.9146 50.089 17.9416C49.7881 17.9997 49.4628 17.8672 49.2536 17.498L49.6886 17.2515C49.7493 17.3586 49.8115 17.4086 49.8585 17.4319C49.9055 17.4551 49.9516 17.4589 49.9941 17.4507C50.039 17.442 50.0779 17.4202 50.1036 17.3955C50.1311 17.369 50.1288 17.3548 50.1284 17.3643L50.628 17.3853Z" fill="#495494"/>
<path d="M49.0927 22.0882H48.8427H49.0927ZM47.8072 22.0882L47.5606 22.1293C47.5584 22.1157 47.5572 22.1019 47.5572 22.0882H47.8072ZM50.3782 17.3748H50.6284L50.628 17.3853L50.3782 17.3748ZM48.9499 12.2329V11.9829H48.9746L48.9989 11.9878L48.9499 12.2329ZM46.3789 12.2329L46.2671 12.0093L46.3199 11.9829H46.3789V12.2329ZM49.652 18.9459L49.9004 18.9173C49.9085 18.9881 49.8861 19.0591 49.8386 19.1123C49.7912 19.1655 49.7233 19.1959 49.652 19.1959V18.9459ZM49.4711 17.3748L49.2227 17.4034L49.4711 17.3748ZM49.3427 22.0882C49.3427 22.3204 49.2256 22.5101 49.0746 22.6395C48.9249 22.7679 48.7302 22.8488 48.5327 22.8721C48.3347 22.8954 48.116 22.8623 47.9297 22.7381C47.7382 22.6104 47.6063 22.4032 47.5606 22.1293L48.0538 22.0471C48.0796 22.2016 48.1441 22.2801 48.207 22.322C48.2751 22.3674 48.3688 22.3879 48.4743 22.3755C48.5804 22.363 48.6803 22.319 48.7492 22.2599C48.817 22.2018 48.8427 22.1416 48.8427 22.0882H49.3427ZM47.5572 22.0882V18.8031H48.0572V22.0882H47.5572ZM50.6282 14.0897V17.3748H50.1282V14.0897H50.6282ZM50.1282 14.0897C50.1282 13.8646 50.065 13.5021 49.8761 13.1758C49.6916 12.8571 49.3904 12.576 48.9008 12.4781L48.9989 11.9878C49.652 12.1184 50.0649 12.5038 50.3089 12.9254C50.5485 13.3394 50.6282 13.7911 50.6282 14.0897H50.1282ZM48.9499 12.4829H46.3789V11.9829H48.9499V12.4829ZM46.4907 12.4565C46.327 12.5384 46.0786 12.7101 45.8881 12.9467C45.6992 13.1813 45.5823 13.4587 45.6266 13.7687L45.1316 13.8394C45.0617 13.3495 45.2543 12.9366 45.4986 12.6331C45.7413 12.3318 46.05 12.1179 46.2671 12.0093L46.4907 12.4565ZM49.652 19.1959H46.7954V18.6959H49.652V19.1959ZM49.3427 18.8031V22.0882H48.8427V18.8031H49.3427ZM49.3411 14.0611L49.7194 17.3462L49.2227 17.4034L48.8443 14.1183L49.3411 14.0611ZM49.7194 17.3462L49.9004 18.9173L49.4037 18.9745L49.2227 17.4034L49.7194 17.3462ZM50.628 17.3853C50.6216 17.5376 50.5434 17.6662 50.4502 17.7558C50.3553 17.8472 50.2289 17.9146 50.089 17.9416C49.7881 17.9997 49.4628 17.8672 49.2536 17.498L49.6886 17.2515C49.7493 17.3586 49.8115 17.4086 49.8585 17.4319C49.9055 17.4551 49.9516 17.4589 49.9941 17.4507C50.039 17.442 50.0779 17.4202 50.1036 17.3955C50.1311 17.369 50.1288 17.3548 50.1284 17.3643L50.628 17.3853Z" fill="#495494"/>
<path d="M38.5118 23.6634C39.1784 23.711 40.7686 24.2347 41.7969 25.9487C42.8253 27.6626 44.3203 28.1863 44.9392 28.2339C45.7009 28.2815 47.453 27.8911 48.3671 25.9487C49.2812 24.0062 51.0332 23.6158 51.795 23.6634" stroke="#495494" stroke-width="0.5" stroke-linecap="round"/>
<path d="M38.5126 28.2336C39.1791 28.186 40.7693 27.6623 41.7977 25.9483C42.826 24.2344 44.321 23.7106 44.9399 23.663C45.7017 23.6154 47.4537 24.0058 48.3678 25.9483C49.2819 27.8908 51.034 28.2812 51.7957 28.2336" stroke="#495494" stroke-width="0.5" stroke-linecap="round"/>
<path d="M38.7985 24.2305L38.7985 27.6584" stroke="#495494" stroke-width="0.5" stroke-linecap="round" stroke-linejoin="round"/>
<path d="M39.6555 24.8013L39.6555 27.0865" stroke="#495494" stroke-width="0.5" stroke-linecap="round" stroke-linejoin="round"/>
<path d="M40.5117 25.373L40.5117 26.5157" stroke="#495494" stroke-width="0.5" stroke-linecap="round" stroke-linejoin="round"/>
<path d="M45.6538 24.2305L45.6538 27.6584" stroke="#495494" stroke-width="0.5" stroke-linecap="round" stroke-linejoin="round"/>
<path d="M46.5109 24.8013L46.5109 27.0865" stroke="#495494" stroke-width="0.5" stroke-linecap="round" stroke-linejoin="round"/>
<path d="M47.3671 25.373L47.3671 26.5157" stroke="#495494" stroke-width="0.5" stroke-linecap="round" stroke-linejoin="round"/>
<path d="M44.7961 24.2305L44.7961 27.6584" stroke="#495494" stroke-width="0.5" stroke-linecap="round" stroke-linejoin="round"/>
<path d="M43.9391 24.8013L43.9391 27.0865" stroke="#495494" stroke-width="0.5" stroke-linecap="round" stroke-linejoin="round"/>
<path d="M43.0814 25.373L43.0814 26.5157" stroke="#495494" stroke-width="0.5" stroke-linecap="round" stroke-linejoin="round"/>
<path d="M51.3672 24.2305L51.3672 27.6584" stroke="#495494" stroke-width="0.5" stroke-linecap="round" stroke-linejoin="round"/>
<path d="M50.5109 24.8013L50.5109 27.0865" stroke="#495494" stroke-width="0.5" stroke-linecap="round" stroke-linejoin="round"/>
<path d="M49.6532 25.373L49.6532 26.5157" stroke="#495494" stroke-width="0.5" stroke-linecap="round" stroke-linejoin="round"/>
</svg>
